<svg version="1.1" xmlns="http://www.w3.org/2000/svg" xmlns:xlink="http://www.w3.org/1999/xlink" width="634" height="1497"><defs/><g><g/><g/><g/><g/><g/><g/><g/><g/><g/><g/><g/><g/><g/><g/><g/><g/><g/><g/><g/><g/><g/><g/><g/><g/><g/><g/><g/><g><rect fill="white" stroke="none" x="0" y="0" width="634" height="1497"/></g><g><text fill="black" stroke="none" font-family="sans-serif" font-size="16.5pt" font-style="normal" font-weight="normal" text-decoration="normal" x="293.8270756744036" y="24.50280495" text-anchor="start" dominant-baseline="alphabetic">Flow</text></g><g/><g><path fill="none" stroke="black" paint-order="fill stroke markers" d=" M 96.69214178152343 95.887643371 L 96.69214178152343 1497.448086511" stroke-miterlimit="10" stroke-width="1.3612669416666667" stroke-dasharray="12.565541,5.445067766666667"/><path fill="none" stroke="black" paint-order="fill stroke markers" d=" M 291.03306238575516 95.887643371 L 291.03306238575516 1497.448086511" stroke-miterlimit="10" stroke-width="1.3612669416666667" stroke-dasharray="12.565541,5.445067766666667"/><path fill="none" stroke="black" paint-order="fill stroke markers" d=" M 570.0624757003385 95.887643371 L 570.0624757003385 1497.448086511" stroke-miterlimit="10" stroke-width="1.3612669416666667" stroke-dasharray="12.565541,5.445067766666667"/></g><g><path fill="none" stroke="none"/><g><path fill="white" stroke="black" paint-order="fill stroke markers" d=" M 46.78877395981249 51.782594461 L 146.59550960323438 51.782594461 L 146.59550960323438 95.887643371 L 46.78877395981249 95.887643371 L 46.78877395981249 51.782594461 Z" stroke-miterlimit="10" stroke-width="2.613632528" stroke-dasharray=""/></g><g><g/><text fill="black" stroke="none" font-family="sans-serif" font-size="11pt" font-style="normal" font-weight="normal" text-decoration="normal" x="64.5124695403125" y="79.55244007099999" text-anchor="start" dominant-baseline="alphabetic">STM32F4</text></g><path fill="none" stroke="none"/><g><path fill="white" stroke="black" paint-order="fill stroke markers" d=" M 250.4890466758606 51.782594461 L 331.57707809564965 51.782594461 L 331.57707809564965 95.887643371 L 250.4890466758606 95.887643371 L 250.4890466758606 51.782594461 Z" stroke-miterlimit="10" stroke-width="2.613632528" stroke-dasharray=""/></g><g><g/><text fill="black" stroke="none" font-family="sans-serif" font-size="11pt" font-style="normal" font-weight="normal" text-decoration="normal" x="268.2127422563606" y="79.55244007099999" text-anchor="start" dominant-baseline="alphabetic">ESP32</text></g><path fill="none" stroke="none"/><g><path fill="white" stroke="black" paint-order="fill stroke markers" d=" M 514.1891829518697 51.782594461 L 625.9357684488073 51.782594461 L 625.9357684488073 95.887643371 L 514.1891829518697 95.887643371 L 514.1891829518697 51.782594461 Z" stroke-miterlimit="10" stroke-width="2.613632528" stroke-dasharray=""/></g><g><g/><text fill="black" stroke="none" font-family="sans-serif" font-size="11pt" font-style="normal" font-weight="normal" text-decoration="normal" x="531.9128785323697" y="79.55244007099999" text-anchor="start" dominant-baseline="alphabetic">OTA Server</text></g></g><g><path fill="white" stroke="black" paint-order="fill stroke markers" d=" M 282.86546073575516 754.1963363609998 L 299.20066403575515 754.1963363609998 L 299.20066403575515 1165.8434595209997 L 282.86546073575516 1165.8434595209997 L 282.86546073575516 754.1963363609998" stroke-miterlimit="10" stroke-width="1.3612669416666667" stroke-dasharray=""/><path fill="white" stroke="black" paint-order="fill stroke markers" d=" M 88.52454013152344 1165.8434595209997 L 104.85974343152343 1165.8434595209997 L 104.85974343152343 1440.274874961 L 88.52454013152344 1440.274874961 L 88.52454013152344 1165.8434595209997" stroke-miterlimit="10" stroke-width="1.3612669416666667" stroke-dasharray=""/><g><g><rect fill="white" stroke="none" x="126.63783123219396" y="128.558049971" width="134.44954170289063" height="21.23576429"/></g><text fill="black" stroke="none" font-family="sans-serif" font-size="11pt" font-style="normal" font-weight="normal" text-decoration="normal" x="129.08811172719396" y="143.259732941" text-anchor="start" dominant-baseline="alphabetic">Accelerometer Data</text></g><g><path fill="none" stroke="black" paint-order="fill stroke markers" d=" M 96.69214178152343 149.793814261 L 288.31052850242185 149.793814261" stroke-miterlimit="10" stroke-width="1.3612669416666667" stroke-dasharray=""/><g transform="translate(291.03306238575516,149.793814261) translate(-291.03306238575516,-149.793814261)"><path fill="black" stroke="none" paint-order="stroke fill markers" d=" M 277.4203929690885 142.98747955266666 L 291.03306238575516 149.793814261 L 277.4203929690885 156.60014896933333 Z"/></g></g><g><g><rect fill="white" stroke="none" x="314.44685378242184" y="174.296619211" width="232.20183052125" height="21.23576429"/></g><text fill="black" stroke="none" font-family="sans-serif" font-size="11pt" font-style="normal" font-weight="normal" text-decoration="normal" x="316.89713427742186" y="188.99830218099999" text-anchor="start" dominant-baseline="alphabetic">Publish Server using MQTT Broker</text></g><g><path fill="none" stroke="black" paint-order="fill stroke markers" d=" M 291.03306238575516 195.532383501 L 567.3399418170052 195.532383501" stroke-miterlimit="10" stroke-width="1.3612669416666667" stroke-dasharray=""/><g transform="translate(570.0624757003385,195.532383501) translate(-570.0624757003385,-195.532383501)"><path fill="black" stroke="none" paint-order="stroke fill markers" d=" M 556.4498062836718 188.72604879266666 L 570.0624757003385 195.532383501 L 556.4498062836718 202.33871820933334 Z"/></g></g><g><g><rect fill="white" stroke="none" x="140.56409313404944" y="220.035188451" width="106.59701789917969" height="21.23576429"/></g><text fill="black" stroke="none" font-family="sans-serif" font-size="11pt" font-style="normal" font-weight="normal" text-decoration="normal" x="143.01437362904943" y="234.736871421" text-anchor="start" dominant-baseline="alphabetic">"check_update"</text></g><g><path fill="none" stroke="black" paint-order="fill stroke markers" d=" M 96.69214178152343 241.270952741 L 288.31052850242185 241.270952741" stroke-miterlimit="10" stroke-width="1.3612669416666667" stroke-dasharray=""/><g transform="translate(291.03306238575516,241.270952741) translate(-291.03306238575516,-241.270952741)"><path fill="black" stroke="none" paint-order="stroke fill markers" d=" M 277.4203929690885 234.46461803266666 L 291.03306238575516 241.270952741 L 277.4203929690885 248.07728744933334 Z"/></g></g><g><g><rect fill="white" stroke="none" x="377.249260093457" y="265.77375769099996" width="106.59701789917969" height="21.23576429"/></g><text fill="black" stroke="none" font-family="sans-serif" font-size="11pt" font-style="normal" font-weight="normal" text-decoration="normal" x="379.699540588457" y="280.47544066099994" text-anchor="start" dominant-baseline="alphabetic">"check_update"</text></g><g><path fill="none" stroke="black" paint-order="fill stroke markers" d=" M 291.03306238575516 287.009521981 L 567.3399418170052 287.009521981" stroke-miterlimit="10" stroke-width="1.3612669416666667" stroke-dasharray=""/><g transform="translate(570.0624757003385,287.009521981) translate(-570.0624757003385,-287.009521981)"><path fill="black" stroke="none" paint-order="stroke fill markers" d=" M 556.4498062836718 280.20318727266664 L 570.0624757003385 287.009521981 L 556.4498062836718 293.8158566893333 Z"/></g></g><g><g><rect fill="white" stroke="none" x="147.90840007985022" y="311.51232693099996" width="91.90840400757813" height="21.23576429"/></g><text fill="black" stroke="none" font-family="sans-serif" font-size="11pt" font-style="normal" font-weight="normal" text-decoration="normal" x="150.3586805748502" y="326.21400990099994" text-anchor="start" dominant-baseline="alphabetic">"Auth. String"</text></g><g><path fill="none" stroke="black" paint-order="fill stroke markers" d=" M 291.03306238575516 332.748091221 L 99.41467566485676 332.748091221" stroke-miterlimit="10" stroke-width="1.3612669416666667" stroke-dasharray=""/><g transform="translate(96.69214178152343,332.748091221) translate(-96.69214178152343,-332.748091221)"><path fill="black" stroke="none" paint-order="stroke fill markers" d=" M 110.3048111981901 325.94175651266664 L 96.69214178152343 332.748091221 L 110.3048111981901 339.5544259293333 Z"/></g></g><g><g><rect fill="white" stroke="none" x="384.5935670392578" y="357.25089617099997" width="91.90840400757813" height="21.23576429"/></g><text fill="black" stroke="none" font-family="sans-serif" font-size="11pt" font-style="normal" font-weight="normal" text-decoration="normal" x="387.0438475342578" y="371.95257914099994" text-anchor="start" dominant-baseline="alphabetic">"Auth. String"</text></g><g><path fill="none" stroke="black" paint-order="fill stroke markers" d=" M 570.0624757003385 378.486660461 L 293.75559626908847 378.486660461" stroke-miterlimit="10" stroke-width="1.3612669416666667" stroke-dasharray=""/><g transform="translate(291.03306238575516,378.486660461) translate(-291.03306238575516,-378.486660461)"><path fill="black" stroke="none" paint-order="stroke fill markers" d=" M 304.64573180242184 371.68032575266665 L 291.03306238575516 378.486660461 L 304.64573180242184 385.2929951693333 Z"/></g></g><path fill="white" stroke="black" paint-order="fill stroke markers" d=" M 32.6704066 447.09451432099996 L 146.01219399304688 447.09451432099996 L 160.71387696304689 461.79619729099994 L 160.71387696304689 484.665481911 L 32.6704066 484.665481911 L 32.6704066 447.09451432099996 M 146.01219399304688 447.09451432099996 L 146.01219399304688 461.79619729099994 L 160.71387696304689 461.79619729099994" stroke-miterlimit="10" stroke-width="1.3612669416666667" stroke-dasharray=""/><g><text fill="black" stroke="none" font-family="sans-serif" font-size="11pt" font-style="normal" font-weight="normal" text-decoration="normal" x="55.539691219999995" y="469.96379894099994" text-anchor="start" dominant-baseline="alphabetic">Auth Sucess</text></g><g><g><rect fill="white" stroke="none" x="124.18973400319005" y="509.16828686099996" width="139.34573616089844" height="21.23576429"/></g><text fill="black" stroke="none" font-family="sans-serif" font-size="11pt" font-style="normal" font-weight="normal" text-decoration="normal" x="126.64001449819006" y="523.8699698309999" text-anchor="start" dominant-baseline="alphabetic">Reverse of secure id</text></g><g><path fill="none" stroke="black" paint-order="fill stroke markers" d=" M 96.69214178152343 530.404051151 L 288.31052850242185 530.404051151" stroke-miterlimit="10" stroke-width="1.3612669416666667" stroke-dasharray=""/><g transform="translate(291.03306238575516,530.404051151) translate(-291.03306238575516,-530.404051151)"><path fill="black" stroke="none" paint-order="stroke fill markers" d=" M 277.4203929690885 523.5977164426666 L 291.03306238575516 530.404051151 L 277.4203929690885 537.2103858593333 Z"/></g></g><path fill="white" stroke="black" paint-order="fill stroke markers" d=" M 39.184360762597656 554.9068561009999 L 139.4982398304492 554.9068561009999 L 154.1999228004492 569.6085390709999 L 154.1999228004492 592.4778236909999 L 39.184360762597656 592.4778236909999 L 39.184360762597656 554.9068561009999 M 139.4982398304492 554.9068561009999 L 139.4982398304492 569.6085390709999 L 154.1999228004492 569.6085390709999" stroke-miterlimit="10" stroke-width="1.3612669416666667" stroke-dasharray=""/><g><text fill="black" stroke="none" font-family="sans-serif" font-size="11pt" font-style="normal" font-weight="normal" text-decoration="normal" x="62.05364538259765" y="577.7761407209999" text-anchor="start" dominant-baseline="alphabetic">Auth failed</text></g><g><g><rect fill="white" stroke="none" x="160.44598247731116" y="616.9806286409998" width="66.83323921265625" height="21.23576429"/></g><text fill="black" stroke="none" font-family="sans-serif" font-size="11pt" font-style="normal" font-weight="normal" text-decoration="normal" x="162.89626297231115" y="631.6823116109998" text-anchor="start" dominant-baseline="alphabetic">Secure id</text></g><g><path fill="none" stroke="black" paint-order="fill stroke markers" d=" M 96.69214178152343 638.2163929309999 L 288.31052850242185 638.2163929309999" stroke-miterlimit="10" stroke-width="1.3612669416666667" stroke-dasharray=""/><g transform="translate(291.03306238575516,638.2163929309999) translate(-291.03306238575516,-638.2163929309999)"><path fill="black" stroke="none" paint-order="stroke fill markers" d=" M 277.4203929690885 631.4100582226665 L 291.03306238575516 638.2163929309999 L 277.4203929690885 645.0227276393332 Z"/></g></g><g><g><rect fill="white" stroke="none" x="142.19973613942054" y="687.2220028309998" width="103.3257318884375" height="21.23576429"/></g><text fill="black" stroke="none" font-family="sans-serif" font-size="11pt" font-style="normal" font-weight="normal" text-decoration="normal" x="144.65001663442052" y="701.9236858009998" text-anchor="start" dominant-baseline="alphabetic">"ESP32Ready"</text></g><g><path fill="none" stroke="black" paint-order="fill stroke markers" d=" M 96.69214178152343 708.4577671209998 L 288.31052850242185 708.4577671209998" stroke-miterlimit="10" stroke-width="1.3612669416666667" stroke-dasharray=""/><g transform="translate(291.03306238575516,708.4577671209998) translate(-291.03306238575516,-708.4577671209998)"><path fill="black" stroke="none" paint-order="stroke fill markers" d=" M 277.4203929690885 701.6514324126665 L 291.03306238575516 708.4577671209998 L 277.4203929690885 715.2641018293332 Z"/></g></g><g><g><rect fill="white" stroke="none" x="382.96870392382806" y="732.9605720709998" width="103.3257318884375" height="21.23576429"/></g><text fill="black" stroke="none" font-family="sans-serif" font-size="11pt" font-style="normal" font-weight="normal" text-decoration="normal" x="385.4189844188281" y="747.6622550409998" text-anchor="start" dominant-baseline="alphabetic">"ESP32Ready"</text></g><g><path fill="none" stroke="black" paint-order="fill stroke markers" d=" M 299.20066403575515 754.1963363609998 L 567.3399418170052 754.1963363609998" stroke-miterlimit="10" stroke-width="1.3612669416666667" stroke-dasharray=""/><g transform="translate(570.0624757003385,754.1963363609998) translate(-570.0624757003385,-754.1963363609998)"><path fill="black" stroke="none" paint-order="stroke fill markers" d=" M 556.4498062836718 747.3900016526665 L 570.0624757003385 754.1963363609998 L 556.4498062836718 761.0026710693331 Z"/></g></g><g><g><rect fill="white" stroke="none" x="368.2979885917968" y="778.6991413109997" width="132.6671625525" height="21.23576429"/></g><text fill="black" stroke="none" font-family="sans-serif" font-size="11pt" font-style="normal" font-weight="normal" text-decoration="normal" x="370.7482690867968" y="793.4008242809997" text-anchor="start" dominant-baseline="alphabetic">"update_confirmed"</text></g><g><path fill="none" stroke="black" paint-order="fill stroke markers" d=" M 570.0624757003385 799.9349056009997 L 301.92319791908847 799.9349056009997" stroke-miterlimit="10" stroke-width="1.3612669416666667" stroke-dasharray=""/><g transform="translate(299.20066403575515,799.9349056009997) translate(-299.20066403575515,-799.9349056009997)"><path fill="black" stroke="none" paint-order="stroke fill markers" d=" M 312.81333345242183 793.1285708926664 L 299.20066403575515 799.9349056009997 L 312.81333345242183 806.7412403093331 Z"/></g></g><g><g><rect fill="white" stroke="none" x="395.5993344169921" y="824.4377105509997" width="78.06447090210938" height="21.23576429"/></g><text fill="black" stroke="none" font-family="sans-serif" font-size="11pt" font-style="normal" font-weight="normal" text-decoration="normal" x="398.04961491199214" y="839.1393935209996" text-anchor="start" dominant-baseline="alphabetic">"ACK$0$1"</text></g><g><path fill="none" stroke="black" paint-order="fill stroke markers" d=" M 299.20066403575515 845.6734748409997 L 567.3399418170052 845.6734748409997" stroke-miterlimit="10" stroke-width="1.3612669416666667" stroke-dasharray=""/><g transform="translate(570.0624757003385,845.6734748409997) translate(-570.0624757003385,-845.6734748409997)"><path fill="black" stroke="none" paint-order="stroke fill markers" d=" M 556.4498062836718 838.8671401326663 L 570.0624757003385 845.6734748409997 L 556.4498062836718 852.479809549333 Z"/></g></g><g><g><rect fill="white" stroke="none" x="384.60793274462884" y="870.1762797909996" width="100.04727424683594" height="21.23576429"/></g><text fill="black" stroke="none" font-family="sans-serif" font-size="11pt" font-style="normal" font-weight="normal" text-decoration="normal" x="387.05821323962886" y="884.8779627609996" text-anchor="start" dominant-baseline="alphabetic">"Hex String[0]"</text></g><g><path fill="none" stroke="black" paint-order="fill stroke markers" d=" M 570.0624757003385 891.4120440809996 L 301.92319791908847 891.4120440809996" stroke-miterlimit="10" stroke-width="1.3612669416666667" stroke-dasharray=""/><g transform="translate(299.20066403575515,891.4120440809996) translate(-299.20066403575515,-891.4120440809996)"><path fill="black" stroke="none" paint-order="stroke fill markers" d=" M 312.81333345242183 884.6057093726663 L 299.20066403575515 891.4120440809996 L 312.81333345242183 898.218378789333 Z"/></g></g><g><g><rect fill="white" stroke="none" x="395.5993344169921" y="915.9148490309996" width="78.06447090210938" height="21.23576429"/></g><text fill="black" stroke="none" font-family="sans-serif" font-size="11pt" font-style="normal" font-weight="normal" text-decoration="normal" x="398.04961491199214" y="930.6165320009995" text-anchor="start" dominant-baseline="alphabetic">"ACK$0$2"</text></g><g><path fill="none" stroke="black" paint-order="fill stroke markers" d=" M 299.20066403575515 937.1506133209996 L 567.3399418170052 937.1506133209996" stroke-miterlimit="10" stroke-width="1.3612669416666667" stroke-dasharray=""/><g transform="translate(570.0624757003385,937.1506133209996) translate(-570.0624757003385,-937.1506133209996)"><path fill="black" stroke="none" paint-order="stroke fill markers" d=" M 556.4498062836718 930.3442786126662 L 570.0624757003385 937.1506133209996 L 556.4498062836718 943.9569480293329 Z"/></g></g><g><g><rect fill="white" stroke="none" x="384.60793274462884" y="961.6534182709995" width="100.04727424683594" height="21.23576429"/></g><text fill="black" stroke="none" font-family="sans-serif" font-size="11pt" font-style="normal" font-weight="normal" text-decoration="normal" x="387.05821323962886" y="976.3551012409995" text-anchor="start" dominant-baseline="alphabetic">"Hex String[1]"</text></g><g><path fill="none" stroke="black" paint-order="fill stroke markers" d=" M 570.0624757003385 982.8891825609995 L 301.92319791908847 982.8891825609995" stroke-miterlimit="10" stroke-width="1.3612669416666667" stroke-dasharray=""/><g transform="translate(299.20066403575515,982.8891825609995) translate(-299.20066403575515,-982.8891825609995)"><path fill="black" stroke="none" paint-order="stroke fill markers" d=" M 312.81333345242183 976.0828478526662 L 299.20066403575515 982.8891825609995 L 312.81333345242183 989.6955172693329 Z"/></g></g><g><g><rect fill="white" stroke="none" x="420.8677594047851" y="1007.3919875109995" width="27.527620926523436" height="21.23576429"/></g><text fill="black" stroke="none" font-family="sans-serif" font-size="11pt" font-style="normal" font-weight="normal" text-decoration="normal" x="423.3180398997851" y="1022.0936704809994" text-anchor="start" dominant-baseline="alphabetic">"..."</text></g><g><path fill="none" stroke="black" paint-order="fill stroke markers" d=" M 299.20066403575515 1028.6277518009995 L 567.3399418170052 1028.6277518009995" stroke-miterlimit="10" stroke-width="1.3612669416666667" stroke-dasharray=""/><g transform="translate(570.0624757003385,1028.6277518009995) translate(-570.0624757003385,-1028.6277518009995)"><path fill="black" stroke="none" paint-order="stroke fill markers" d=" M 556.4498062836718 1021.8214170926661 L 570.0624757003385 1028.6277518009995 L 556.4498062836718 1035.4340865093327 Z"/></g></g><g><g><rect fill="white" stroke="none" x="382.57500427783197" y="1053.1305567509996" width="104.11313118042969" height="21.23576429"/></g><text fill="black" stroke="none" font-family="sans-serif" font-size="11pt" font-style="normal" font-weight="normal" text-decoration="normal" x="385.025284772832" y="1067.8322397209997" text-anchor="start" dominant-baseline="alphabetic">"Hex String[...]"</text></g><g><path fill="none" stroke="black" paint-order="fill stroke markers" d=" M 570.0624757003385 1074.3663210409995 L 301.92319791908847 1074.3663210409995" stroke-miterlimit="10" stroke-width="1.3612669416666667" stroke-dasharray=""/><g transform="translate(299.20066403575515,1074.3663210409995) translate(-299.20066403575515,-1074.3663210409995)"><path fill="black" stroke="none" paint-order="stroke fill markers" d=" M 312.81333345242183 1067.5599863326663 L 299.20066403575515 1074.3663210409995 L 312.81333345242183 1081.1726557493328 Z"/></g></g><g><g><rect fill="white" stroke="none" x="385.00520294726556" y="1098.8691259909997" width="99.2527338415625" height="21.23576429"/></g><text fill="black" stroke="none" font-family="sans-serif" font-size="11pt" font-style="normal" font-weight="normal" text-decoration="normal" x="387.4554834422656" y="1113.5708089609998" text-anchor="start" dominant-baseline="alphabetic">"ACK$0$&lt;...&gt;"</text></g><g><path fill="none" stroke="black" paint-order="fill stroke markers" d=" M 299.20066403575515 1120.1048902809996 L 567.3399418170052 1120.1048902809996" stroke-miterlimit="10" stroke-width="1.3612669416666667" stroke-dasharray=""/><g transform="translate(570.0624757003385,1120.1048902809996) translate(-570.0624757003385,-1120.1048902809996)"><path fill="black" stroke="none" paint-order="stroke fill markers" d=" M 556.4498062836718 1113.2985555726664 L 570.0624757003385 1120.1048902809996 L 556.4498062836718 1126.9112249893328 Z"/></g></g><g><g><rect fill="white" stroke="none" x="403.7560879570312" y="1144.6076952309998" width="61.75096382203125" height="21.23576429"/></g><text fill="black" stroke="none" font-family="sans-serif" font-size="11pt" font-style="normal" font-weight="normal" text-decoration="normal" x="406.2063684520312" y="1159.3093782009998" text-anchor="start" dominant-baseline="alphabetic">"E_O_F"</text></g><g><path fill="none" stroke="black" paint-order="fill stroke markers" d=" M 570.0624757003385 1165.8434595209997 L 301.92319791908847 1165.8434595209997" stroke-miterlimit="10" stroke-width="1.3612669416666667" stroke-dasharray=""/><g transform="translate(299.20066403575515,1165.8434595209997) translate(-299.20066403575515,-1165.8434595209997)"><path fill="black" stroke="none" paint-order="stroke fill markers" d=" M 312.81333345242183 1159.0371248126664 L 299.20066403575515 1165.8434595209997 L 312.81333345242183 1172.6497942293329 Z"/></g></g><g><g><rect fill="white" stroke="none" x="171.95640378570963" y="1190.3462644709998" width="51.97999824585938" height="21.23576429"/></g><text fill="black" stroke="none" font-family="sans-serif" font-size="11pt" font-style="normal" font-weight="normal" text-decoration="normal" x="174.4066842807096" y="1205.047947441" text-anchor="start" dominant-baseline="alphabetic">"ready"</text></g><g><path fill="none" stroke="black" paint-order="fill stroke markers" d=" M 104.85974343152343 1211.5820287609997 L 288.31052850242185 1211.5820287609997" stroke-miterlimit="10" stroke-width="1.3612669416666667" stroke-dasharray=""/><g transform="translate(291.03306238575516,1211.5820287609997) translate(-291.03306238575516,-1211.5820287609997)"><path fill="black" stroke="none" paint-order="stroke fill markers" d=" M 277.4203929690885 1204.7756940526665 L 291.03306238575516 1211.5820287609997 L 277.4203929690885 1218.388363469333 Z"/></g></g><g><g><rect fill="white" stroke="none" x="147.92276578522134" y="1236.0848337109999" width="100.04727424683594" height="21.23576429"/></g><text fill="black" stroke="none" font-family="sans-serif" font-size="11pt" font-style="normal" font-weight="normal" text-decoration="normal" x="150.37304628022133" y="1250.786516681" text-anchor="start" dominant-baseline="alphabetic">"Hex String[0]"</text></g><g><path fill="none" stroke="black" paint-order="fill stroke markers" d=" M 291.03306238575516 1257.3205980009998 L 107.58227731485675 1257.3205980009998" stroke-miterlimit="10" stroke-width="1.3612669416666667" stroke-dasharray=""/><g transform="translate(104.85974343152343,1257.3205980009998) translate(-104.85974343152343,-1257.3205980009998)"><path fill="black" stroke="none" paint-order="stroke fill markers" d=" M 118.47241284819009 1250.5142632926666 L 104.85974343152343 1257.3205980009998 L 118.47241284819009 1264.126932709333 Z"/></g></g><g><g><rect fill="white" stroke="none" x="162.50043302154947" y="1281.823402951" width="70.89193977417969" height="21.23576429"/></g><text fill="black" stroke="none" font-family="sans-serif" font-size="11pt" font-style="normal" font-weight="normal" text-decoration="normal" x="164.95071351654946" y="1296.525085921" text-anchor="start" dominant-baseline="alphabetic">checksum</text></g><g><path fill="none" stroke="black" paint-order="fill stroke markers" d=" M 104.85974343152343 1303.0591672409998 L 288.31052850242185 1303.0591672409998" stroke-miterlimit="10" stroke-width="1.3612669416666667" stroke-dasharray=""/><g transform="translate(291.03306238575516,1303.0591672409998) translate(-291.03306238575516,-1303.0591672409998)"><path fill="black" stroke="none" paint-order="stroke fill markers" d=" M 277.4203929690885 1296.2528325326666 L 291.03306238575516 1303.0591672409998 L 277.4203929690885 1309.865501949333 Z"/></g></g><g><g><rect fill="white" stroke="none" x="147.92276578522134" y="1327.561972191" width="100.04727424683594" height="21.23576429"/></g><text fill="black" stroke="none" font-family="sans-serif" font-size="11pt" font-style="normal" font-weight="normal" text-decoration="normal" x="150.37304628022133" y="1342.263655161" text-anchor="start" dominant-baseline="alphabetic">"Hex String[1]"</text></g><g><path fill="none" stroke="black" paint-order="fill stroke markers" d=" M 291.03306238575516 1348.797736481 L 107.58227731485675 1348.797736481" stroke-miterlimit="10" stroke-width="1.3612669416666667" stroke-dasharray=""/><g transform="translate(104.85974343152343,1348.797736481) translate(-104.85974343152343,-1348.797736481)"><path fill="black" stroke="none" paint-order="stroke fill markers" d=" M 118.47241284819009 1341.9914017726667 L 104.85974343152343 1348.797736481 L 118.47241284819009 1355.6040711893331 Z"/></g></g><g><g><rect fill="white" stroke="none" x="162.50043302154947" y="1373.300541431" width="70.89193977417969" height="21.23576429"/></g><text fill="black" stroke="none" font-family="sans-serif" font-size="11pt" font-style="normal" font-weight="normal" text-decoration="normal" x="164.95071351654946" y="1388.0022244010001" text-anchor="start" dominant-baseline="alphabetic">checksum</text></g><g><path fill="none" stroke="black" paint-order="fill stroke markers" d=" M 104.85974343152343 1394.536305721 L 288.31052850242185 1394.536305721" stroke-miterlimit="10" stroke-width="1.3612669416666667" stroke-dasharray=""/><g transform="translate(291.03306238575516,1394.536305721) translate(-291.03306238575516,-1394.536305721)"><path fill="black" stroke="none" paint-order="stroke fill markers" d=" M 277.4203929690885 1387.7299710126667 L 291.03306238575516 1394.536305721 L 277.4203929690885 1401.3426404293332 Z"/></g></g><g><g><rect fill="white" stroke="none" x="139.7695828018229" y="1419.0391106710001" width="116.35364021363281" height="21.23576429"/></g><text fill="black" stroke="none" font-family="sans-serif" font-size="11pt" font-style="normal" font-weight="normal" text-decoration="normal" x="142.2198632968229" y="1433.7407936410002" text-anchor="start" dominant-baseline="alphabetic">"Hex String[end]"</text></g><g><path fill="none" stroke="black" paint-order="fill stroke markers" d=" M 291.03306238575516 1440.274874961 L 107.58227731485675 1440.274874961" stroke-miterlimit="10" stroke-width="1.3612669416666667" stroke-dasharray=""/><g transform="translate(104.85974343152343,1440.274874961) translate(-104.85974343152343,-1440.274874961)"><path fill="black" stroke="none" paint-order="stroke fill markers" d=" M 118.47241284819009 1433.4685402526668 L 104.85974343152343 1440.274874961 L 118.47241284819009 1447.0812096693332 Z"/></g></g><g><g/><path fill="none" stroke="black" paint-order="fill stroke markers" d=" M 24.502804949999998 402.98946541099997 L 348.2062739357552 402.98946541099997 L 348.2062739357552 662.7191978809999 L 24.502804949999998 662.7191978809999 L 24.502804949999998 402.98946541099997 Z" stroke-miterlimit="10" stroke-width="2.3336004714285714" stroke-dasharray=""/><path fill="white" stroke="black" paint-order="fill stroke markers" d=" M 24.502804949999998 402.98946541099997 L 24.502804949999998 422.591709371 L 75.40967700410155 422.591709371 L 85.21079898410156 412.790587391 L 85.21079898410156 402.98946541099997 L 24.502804949999998 402.98946541099997" stroke-miterlimit="10" stroke-width="2.3336004714285714" stroke-dasharray=""/><text fill="black" stroke="none" font-family="sans-serif" font-size="8.8pt" font-style="normal" font-weight="bold" text-decoration="normal" x="40.83800825" y="416.057628051" text-anchor="start" dominant-baseline="alphabetic">opt</text><text fill="black" stroke="none" font-family="sans-serif" font-size="8.8pt" font-style="normal" font-weight="bold" text-decoration="normal" x="101.54600228410156" y="416.057628051" text-anchor="start" dominant-baseline="alphabetic">[Auth. check]</text></g></g><g/><g/><g/></g></svg>